<svg width="48" height="48" version="1.1" viewBox="0 0 48 30.439" xmlns="http://www.w3.org/2000/svg">
 <circle cx="24.065" cy="15.324" r="23.371" fill="#fff" fill-rule="evenodd"/>
 <path d="m37.017 9.1496c0.065 0.024 0.128 0.05 0.19 0.08 0.146 0.046 0.292 0.096 0.438 0.149 5.202 1.893 7.888 7.635 6 12.825-1.89 5.19-7.638 7.862-12.84 5.968l-16.956-6.17a2.002 2.002 0 0 1-1.2-2.566 2.002 2.002 0 0 1 2.568-1.194l9.42 3.429a9.942 9.942 0 0 1-0.328-4.376l-19.341-7.04a2.002 2.002 0 0 1-1.2-2.565 2.002 2.002 0 0 1 2.569-1.194l19.341 7.04a9.942 9.942 0 0 1 3.063-3.142l-9.42-3.427a2.002 2.002 0 0 1-1.2-2.565 2.002 2.002 0 0 1 2.568-1.195l16.329 5.943zm-0.673 3.98a6.026 6.026 0 1 0-4.122 11.325 6.026 6.026 0 0 0 4.122-11.324z" fill-rule="evenodd"/>
</svg>
